<svg width="24" height="24" viewBox="0 0 24 24" fill="none" xmlns="http://www.w3.org/2000/svg">
<path d="M16.82 9.69002L18.22 7.25001C18.36 7.01001 18.27 6.71002 18.04 6.57002C17.8 6.43002 17.5 6.51001 17.36 6.75001L15.93 9.23002C13.5 8.16002 10.52 8.15002 8.07003 9.23002L6.64004 6.75001C6.50004 6.51001 6.19005 6.43002 5.96005 6.57002C5.72005 6.71002 5.64005 7.01001 5.78005 7.25001L7.18002 9.69002C4.57002 11.2 2.82003 13.89 2.51003 16.95C2.50003 17.09 2.54004 17.23 2.64004 17.34C2.74004 17.45 2.87003 17.51 3.01003 17.51H21.01C21.15 17.51 21.29 17.45 21.38 17.34C21.47 17.23 21.52 17.09 21.51 16.95C21.2 13.9 19.4501 11.21 16.8401 9.69002H16.82ZM7.87002 14.57C7.45002 14.57 7.11001 14.23 7.11001 13.81C7.11001 13.39 7.45002 13.06 7.87002 13.06C8.29002 13.06 8.62002 13.4 8.62002 13.81C8.62002 14.22 8.28002 14.57 7.87002 14.57ZM16.13 14.57C15.71 14.57 15.38 14.23 15.38 13.81C15.38 13.39 15.72 13.06 16.13 13.06C16.54 13.06 16.89 13.4 16.89 13.81C16.89 14.22 16.55 14.57 16.13 14.57Z" fill="#FDFDFD"/>
</svg>
