<svg width="24" height="24" viewBox="0 0 24 24" fill="none" xmlns="http://www.w3.org/2000/svg">
<path d="M16.8203 9.68998L18.2202 7.24998C18.3602 7.00998 18.2702 6.70999 18.0402 6.56999C17.8002 6.42999 17.5003 6.50998 17.3603 6.74998L15.9303 9.22999C13.5003 8.15999 10.5203 8.14999 8.07028 9.22999L6.64028 6.74998C6.50028 6.50998 6.19029 6.42999 5.96029 6.56999C5.72029 6.70999 5.6403 7.00998 5.7803 7.24998L7.18026 9.68998C4.57026 11.2 2.82028 13.89 2.51028 16.95C2.50028 17.09 2.54028 17.23 2.64028 17.34C2.74028 17.45 2.87028 17.51 3.01028 17.51H21.0103C21.1503 17.51 21.2903 17.45 21.3803 17.34C21.4703 17.23 21.5203 17.09 21.5103 16.95C21.2003 13.9 19.4503 11.21 16.8403 9.68998H16.8203ZM7.87026 14.57C7.45026 14.57 7.11025 14.23 7.11025 13.81C7.11025 13.39 7.45026 13.06 7.87026 13.06C8.29026 13.06 8.62026 13.4 8.62026 13.81C8.62026 14.22 8.28026 14.57 7.87026 14.57ZM16.1303 14.57C15.7103 14.57 15.3803 14.23 15.3803 13.81C15.3803 13.39 15.7203 13.06 16.1303 13.06C16.5403 13.06 16.8903 13.4 16.8903 13.81C16.8903 14.22 16.5503 14.57 16.1303 14.57Z" fill="#25314C"/>
</svg>
