<svg width="24" height="24" viewBox="0 0 24 24" fill="none" xmlns="http://www.w3.org/2000/svg">
<path d="M16.5398 12.01C16.5398 12.09 16.3998 14.47 18.9998 15.7C18.5098 17.18 16.8498 20.47 14.9098 20.49C13.7898 20.49 13.1298 19.77 11.8698 19.77C10.6098 19.77 9.84976 20.47 8.84976 20.49C6.92976 20.55 5.08974 16.93 4.57974 15.46C4.19974 14.34 4.00977 13.25 4.00977 12.2C4.00977 8.64001 6.36976 6.88001 8.59976 6.85001C9.67976 6.85001 11.0498 7.64001 11.6398 7.64001C12.2098 7.64001 13.7498 6.7 15.1698 6.81C16.6598 6.93 17.7997 7.52001 18.5497 8.60001C17.2097 9.42001 16.5498 10.53 16.5598 12.01H16.5398ZM14.3098 5.41C15.4098 4.11 15.3097 2.92 15.2697 2.5C14.2997 2.56 13.1798 3.15999 12.5398 3.89999C11.8398 4.69999 11.4198 5.68001 11.5098 6.79001C12.5598 6.87001 13.5197 6.33 14.2997 5.41H14.3098Z" fill="#25314C"/>
</svg>
