<svg width="50" height="50" viewBox="0 0 50 50" fill="none" xmlns="http://www.w3.org/2000/svg">
<path d="M48 25.0017C48 26.2437 46.9942 27.2518 45.7499 27.2518H10.6795L22.5894 39.1617C23.4692 40.0415 23.4692 41.4637 22.5894 42.3435C22.1506 42.7823 21.5745 43.0027 20.9984 43.0027C20.4224 43.0027 19.8463 42.7823 19.4075 42.3435L3.65882 26.5948C3.44956 26.3855 3.2852 26.1382 3.17045 25.8614C2.94318 25.3124 2.94318 24.691 3.17045 24.1419C3.2852 23.8652 3.44956 23.6178 3.65882 23.4086L19.4075 7.65985C20.2873 6.78005 21.7096 6.78005 22.5894 7.65985C23.4692 8.53965 23.4692 9.96187 22.5894 10.8417L10.6795 22.7515H45.7499C46.9942 22.7515 48 23.7596 48 25.0017Z" fill="#FDFDFD"/>
</svg>
