<svg xmlns="http://www.w3.org/2000/svg" xmlns:xlink="http://www.w3.org/1999/xlink" viewBox="0 0 47.67 62.97"><defs><style>.a{fill:url(#a);}.b{fill:url(#b);}.c{fill:url(#c);}.d{fill:url(#d);}.e{fill:url(#e);}</style><linearGradient id="a" x1="288.46" y1="436.55" x2="301.85" y2="417.75" gradientUnits="userSpaceOnUse"><stop offset="0" stop-color="#fed700"/><stop offset="0" stop-color="#fad409"/><stop offset="0" stop-color="#f5cf14"/><stop offset="0" stop-color="#f3ce18"/><stop offset="1" stop-color="#f68c1f"/></linearGradient><linearGradient id="b" x1="288.16" y1="461.51" x2="302.14" y2="479.57" xlink:href="#a"/><linearGradient id="c" x1="288.21" y1="447.99" x2="315.64" y2="429.66" xlink:href="#a"/><linearGradient id="d" x1="288.14" y1="450.9" x2="316.1" y2="467.91" xlink:href="#a"/><linearGradient id="e" x1="288.3" y1="448.85" x2="335.98" y2="448.85" xlink:href="#a"/></defs><path class="a" d="M288.3,427.55c0-.28,0-.56,0-.83.57-8.27,10.41-12.37,17-7.33l.3.24a3.24,3.24,0,0,1,0,5.17l-15.66,11.67a1,1,0,0,1-1.64-.82Z" transform="translate(-288.3 -417.19)"/><path class="b" d="M288.3,469.8c0,.28,0,.55,0,.83.57,8.27,10.41,12.37,17,7.33l.3-.24a3.24,3.24,0,0,0,0-5.17l-15.66-11.68a1,1,0,0,0-1.64.83Z" transform="translate(-288.3 -417.19)"/><path class="c" d="M288.3,446.52l23.29-5.78a7.41,7.41,0,0,0,2.73-13.08h0a7.41,7.41,0,0,0-8.94-.06l-14.83,11a5.59,5.59,0,0,0-2.25,4.48v3.39Z" transform="translate(-288.3 -417.19)"/><path class="d" d="M288.3,451.12l23.29,5.78A7.41,7.41,0,0,1,314.32,470h0a7.41,7.41,0,0,1-8.94.06L290.55,459a5.59,5.59,0,0,1-2.25-4.48v-3.39Z" transform="translate(-288.3 -417.19)"/><path class="e" d="M333.26,453.73l-5.06,3a6,6,0,0,1-4.41.7L295.62,451l-7.32-1.92v-.57l7.64-1.94,27.89-6.31a6,6,0,0,1,4.34.66l5,2.91.13.09a5.81,5.81,0,0,1-.05,9.81Z" transform="translate(-288.3 -417.19)"/></svg>